<?xml version="1.0" encoding="UTF-8" standalone="no"?>
<!DOCTYPE svg PUBLIC "-//W3C//DTD SVG 1.1//EN" "http://www.w3.org/Graphics/SVG/1.1/DTD/svg11.dtd">
<svg width="100%" height="100%" viewBox="0 0 968 209" version="1.1" xmlns="http://www.w3.org/2000/svg" xmlns:xlink="http://www.w3.org/1999/xlink" xml:space="preserve" xmlns:serif="http://www.serif.com/" style="fill-rule:evenodd;clip-rule:evenodd;stroke-linejoin:round;stroke-miterlimit:2;">
    <g transform="matrix(2.5,0,0,2.50175,-724.341,-673.084)">
        <path d="M401.102,338.789C398.702,338.741 396.458,338.309 394.37,337.493C392.282,336.677 390.458,335.453 388.898,333.821C387.338,332.189 386.102,330.149 385.19,327.701C384.278,325.253 383.822,322.397 383.822,319.133C383.822,316.397 384.182,313.841 384.902,311.465C385.622,309.089 386.702,307.013 388.142,305.237C389.582,303.461 391.382,302.057 393.542,301.025C395.702,299.993 398.222,299.477 401.102,299.477C404.03,299.477 406.574,299.993 408.734,301.025C410.894,302.057 412.694,303.449 414.134,305.201C415.574,306.953 416.642,309.029 417.338,311.429C418.034,313.829 418.382,316.397 418.382,319.133C418.382,322.109 417.974,324.797 417.158,327.197C416.342,329.597 415.178,331.661 413.666,333.389C412.154,335.117 410.33,336.449 408.194,337.385C406.058,338.321 403.694,338.789 401.102,338.789ZM413.774,319.133C413.774,316.925 413.534,314.861 413.054,312.941C412.574,311.021 411.83,309.353 410.822,307.937C409.814,306.521 408.518,305.405 406.934,304.589C405.35,303.773 403.406,303.365 401.102,303.365C398.846,303.365 396.914,303.809 395.306,304.697C393.698,305.585 392.39,306.761 391.382,308.225C390.374,309.689 389.63,311.369 389.15,313.265C388.67,315.161 388.43,317.117 388.43,319.133C388.43,321.437 388.706,323.561 389.258,325.505C389.81,327.449 390.614,329.117 391.67,330.509C392.726,331.901 394.046,332.981 395.63,333.749C397.214,334.517 399.038,334.901 401.102,334.901C403.358,334.901 405.29,334.457 406.898,333.569C408.506,332.681 409.814,331.493 410.822,330.005C411.83,328.517 412.574,326.837 413.054,324.965C413.534,323.093 413.774,321.149 413.774,319.133Z" style="fill:rgb(186,229,250);fill-rule:nonzero;"/>
        <path d="M431.126,319.277C431.126,321.389 431.414,323.393 431.99,325.289C432.566,327.185 433.394,328.841 434.474,330.257C435.554,331.673 436.874,332.801 438.434,333.641C439.994,334.481 441.758,334.901 443.726,334.901C445.934,334.901 447.866,334.457 449.522,333.569C451.178,332.681 452.534,331.469 453.59,329.933C454.646,328.397 455.414,326.609 455.894,324.569C456.374,322.529 456.566,320.333 456.47,317.981C456.47,315.629 456.146,313.553 455.498,311.753C454.85,309.953 453.95,308.429 452.798,307.181C451.646,305.933 450.302,304.985 448.766,304.337C447.23,303.689 445.55,303.365 443.726,303.365C441.71,303.365 439.91,303.773 438.326,304.589C436.742,305.405 435.422,306.521 434.366,307.937C433.31,309.353 432.506,311.033 431.954,312.977C431.402,314.921 431.126,317.021 431.126,319.277ZM431.126,352.469L426.806,352.469L426.806,300.485L431.126,300.485L431.126,307.037L431.27,307.037C431.894,305.837 432.698,304.757 433.682,303.797C434.666,302.837 435.746,302.045 436.922,301.421C438.098,300.797 439.31,300.317 440.558,299.981C441.806,299.645 443.03,299.477 444.23,299.477C447.254,299.477 449.822,299.981 451.934,300.989C454.046,301.997 455.786,303.377 457.154,305.129C458.522,306.881 459.518,308.957 460.142,311.357C460.766,313.757 461.078,316.325 461.078,319.061C461.078,321.653 460.742,324.149 460.07,326.549C459.398,328.949 458.378,331.049 457.01,332.849C455.642,334.649 453.914,336.089 451.826,337.169C449.738,338.249 447.278,338.789 444.446,338.789C441.806,338.789 439.274,338.201 436.85,337.025C434.426,335.849 432.518,334.109 431.126,331.805L431.126,352.469Z" style="fill:rgb(186,229,250);fill-rule:nonzero;"/>
        <path d="M483.398,337.925C482.87,338.021 482.174,338.189 481.31,338.429C480.446,338.669 479.486,338.789 478.43,338.789C476.27,338.789 474.626,338.249 473.498,337.169C472.37,336.089 471.806,334.157 471.806,331.373L471.806,304.085L466.55,304.085L466.55,300.485L471.806,300.485L471.806,290.117L476.126,290.117L476.126,300.485L483.11,300.485L483.11,304.085L476.126,304.085L476.126,329.645C476.126,330.557 476.15,331.349 476.198,332.021C476.246,332.693 476.39,333.245 476.63,333.677C476.87,334.109 477.242,334.421 477.746,334.613C478.25,334.805 478.958,334.901 479.87,334.901C480.446,334.901 481.034,334.853 481.634,334.757C482.234,334.661 482.822,334.541 483.398,334.397L483.398,337.925Z" style="fill:rgb(186,229,250);fill-rule:nonzero;"/>
        <path d="M490.958,337.781L490.958,300.485L495.278,300.485L495.278,337.781L490.958,337.781ZM490.742,292.349L490.742,285.941L495.494,285.941L495.494,292.349L490.742,292.349Z" style="fill:rgb(186,229,250);fill-rule:nonzero;"/>
        <path d="M511.118,319.277C511.118,321.389 511.406,323.393 511.982,325.289C512.558,327.185 513.386,328.841 514.466,330.257C515.546,331.673 516.866,332.801 518.426,333.641C519.986,334.481 521.75,334.901 523.718,334.901C525.926,334.901 527.858,334.457 529.514,333.569C531.17,332.681 532.526,331.469 533.582,329.933C534.638,328.397 535.406,326.609 535.886,324.569C536.366,322.529 536.558,320.333 536.462,317.981C536.462,315.629 536.138,313.553 535.49,311.753C534.842,309.953 533.942,308.429 532.79,307.181C531.638,305.933 530.294,304.985 528.758,304.337C527.222,303.689 525.542,303.365 523.718,303.365C521.702,303.365 519.902,303.773 518.318,304.589C516.734,305.405 515.414,306.521 514.358,307.937C513.302,309.353 512.498,311.033 511.946,312.977C511.394,314.921 511.118,317.021 511.118,319.277ZM511.118,352.469L506.798,352.469L506.798,300.485L511.118,300.485L511.118,307.037L511.262,307.037C511.886,305.837 512.69,304.757 513.674,303.797C514.658,302.837 515.738,302.045 516.914,301.421C518.09,300.797 519.302,300.317 520.55,299.981C521.798,299.645 523.022,299.477 524.222,299.477C527.246,299.477 529.814,299.981 531.926,300.989C534.038,301.997 535.778,303.377 537.146,305.129C538.514,306.881 539.51,308.957 540.134,311.357C540.758,313.757 541.07,316.325 541.07,319.061C541.07,321.653 540.734,324.149 540.062,326.549C539.39,328.949 538.37,331.049 537.002,332.849C535.634,334.649 533.906,336.089 531.818,337.169C529.73,338.249 527.27,338.789 524.438,338.789C521.798,338.789 519.266,338.201 516.842,337.025C514.418,335.849 512.51,334.109 511.118,331.805L511.118,352.469Z" style="fill:rgb(25,153,200);fill-rule:nonzero;"/>
        <path d="M554.822,337.781L550.502,337.781L550.502,300.485L554.822,300.485L554.822,307.469L554.966,307.469C556.166,304.493 557.714,302.417 559.61,301.241C561.506,300.065 564.014,299.477 567.134,299.477L567.134,304.157C564.686,304.109 562.67,304.493 561.086,305.309C559.502,306.125 558.242,307.229 557.306,308.621C556.37,310.013 555.722,311.657 555.362,313.553C555.002,315.449 554.822,317.429 554.822,319.493L554.822,337.781Z" style="fill:rgb(25,153,200);fill-rule:nonzero;"/>
        <path d="M574.91,337.781L574.91,300.485L579.23,300.485L579.23,337.781L574.91,337.781ZM574.694,292.349L574.694,285.941L579.446,285.941L579.446,292.349L574.694,292.349Z" style="fill:rgb(25,153,200);fill-rule:nonzero;"/>
        <path d="M592.766,326.117C593.438,329.333 594.65,331.601 596.402,332.921C598.154,334.241 600.662,334.901 603.926,334.901C605.51,334.901 606.878,334.709 608.03,334.325C609.182,333.941 610.13,333.425 610.874,332.777C611.618,332.129 612.182,331.397 612.566,330.581C612.95,329.765 613.142,328.901 613.142,327.989C613.142,326.165 612.554,324.809 611.378,323.921C610.202,323.033 608.726,322.337 606.95,321.833C605.174,321.329 603.254,320.897 601.19,320.537C599.126,320.177 597.206,319.637 595.43,318.917C593.654,318.197 592.178,317.165 591.002,315.821C589.826,314.477 589.238,312.581 589.238,310.133C589.238,307.013 590.378,304.457 592.658,302.465C594.938,300.473 598.166,299.477 602.342,299.477C606.374,299.477 609.65,300.377 612.17,302.177C614.69,303.977 616.214,306.989 616.742,311.213L612.35,311.213C611.966,308.333 610.874,306.305 609.074,305.129C607.274,303.953 605.006,303.365 602.27,303.365C599.534,303.365 597.446,303.953 596.006,305.129C594.566,306.305 593.846,307.853 593.846,309.773C593.846,311.453 594.434,312.737 595.61,313.625C596.786,314.513 598.262,315.233 600.038,315.785C601.814,316.337 603.734,316.829 605.798,317.261C607.862,317.693 609.782,318.305 611.558,319.097C613.334,319.889 614.81,320.957 615.986,322.301C617.162,323.645 617.75,325.517 617.75,327.917C617.75,329.693 617.366,331.265 616.598,332.633C615.83,334.001 614.774,335.141 613.43,336.053C612.086,336.965 610.49,337.649 608.642,338.105C606.794,338.561 604.766,338.789 602.558,338.789C600.35,338.789 598.394,338.465 596.69,337.817C594.986,337.169 593.534,336.269 592.334,335.117C591.134,333.965 590.198,332.621 589.526,331.085C588.854,329.549 588.47,327.893 588.374,326.117L592.766,326.117Z" style="fill:rgb(25,153,200);fill-rule:nonzero;"/>
        <path d="M629.99,337.781L625.67,337.781L625.67,300.485L629.99,300.485L629.99,306.101L630.134,306.101C631.238,303.941 632.822,302.297 634.886,301.169C636.95,300.041 639.206,299.477 641.654,299.477C643.382,299.477 644.846,299.669 646.046,300.053C647.246,300.437 648.266,300.953 649.106,301.601C649.946,302.249 650.642,303.005 651.194,303.869C651.746,304.733 652.214,305.669 652.598,306.677C653.846,304.229 655.514,302.417 657.602,301.241C659.69,300.065 662.078,299.477 664.766,299.477C667.31,299.477 669.338,299.897 670.85,300.737C672.362,301.577 673.526,302.681 674.342,304.049C675.158,305.417 675.698,306.989 675.962,308.765C676.226,310.541 676.358,312.365 676.358,314.237L676.358,337.781L672.038,337.781L672.038,312.005C672.038,309.317 671.474,307.205 670.346,305.669C669.218,304.133 667.118,303.365 664.046,303.365C662.462,303.365 660.938,303.713 659.474,304.409C658.01,305.105 656.726,306.173 655.622,307.613C655.142,308.237 654.746,308.969 654.434,309.809C654.122,310.649 653.87,311.525 653.678,312.437C653.486,313.349 653.354,314.261 653.282,315.173C653.21,316.085 653.174,316.925 653.174,317.693L653.174,337.781L648.854,337.781L648.854,312.005C648.854,309.317 648.29,307.205 647.162,305.669C646.034,304.133 643.934,303.365 640.862,303.365C639.278,303.365 637.754,303.713 636.29,304.409C634.826,305.105 633.542,306.173 632.438,307.613C631.958,308.237 631.562,308.969 631.25,309.809C630.938,310.649 630.686,311.525 630.494,312.437C630.302,313.349 630.17,314.261 630.098,315.173C630.026,316.085 629.99,316.925 629.99,317.693L629.99,337.781Z" style="fill:rgb(25,153,200);fill-rule:nonzero;"/>
    </g>
    <g transform="matrix(0.375518,0,0,0.375518,-44.6269,-94.6448)">
        <g>
            <path d="M656.887,717.998L387.864,562.678L118.841,717.998L656.887,717.998Z" style="fill:rgb(59,131,157);"/>
            <path d="M656.887,717.998L387.864,252.038L387.864,562.678L656.887,717.998Z" style="fill:rgb(186,229,250);"/>
            <path d="M387.864,252.038L387.864,562.678L118.841,717.998L387.864,252.038Z" style="fill:rgb(105,201,236);"/>
        </g>
    </g>
</svg>
